<?xml version="1.0" encoding="utf-8"?>
<!-- Generator: Adobe Illustrator 22.1.0, SVG Export Plug-In . SVG Version: 6.00 Build 0)  -->
<svg version="1.1" id="Layer_1" xmlns="http://www.w3.org/2000/svg" xmlns:xlink="http://www.w3.org/1999/xlink" x="0px" y="0px"
	 viewBox="0 0 512 512" style="enable-background:new 0 0 512 512;" xml:space="preserve">
<style type="text/css">
	.st0{fill:#FDEBD0;}
</style>
<g>
	<path class="st0" d="M437,75C388.7,26.6,324.4,0,256,0S123.3,26.6,75,75C26.6,123.3,0,187.6,0,256c0,65.7,24.8,128.1,69.9,175.8
		c2.9,3,7.6,3.1,10.6,0.3c3-2.9,3.2-7.6,0.3-10.6C38.4,376.6,15,317.8,15,256c0-64.4,25.1-124.9,70.6-170.4
		C131.1,40.1,191.6,15,256,15s124.9,25.1,170.4,70.6c45.5,45.5,70.6,106,70.6,170.4s-25.1,124.9-70.6,170.4
		C380.9,471.9,320.4,497,256,497c-56.1,0-110.7-19.7-153.8-55.5c-3.2-2.7-7.9-2.2-10.6,1c-2.7,3.2-2.2,7.9,1,10.6
		c45.8,38,103.8,59,163.4,59c68.4,0,132.7-26.6,181-75c48.4-48.4,75-112.6,75-181S485.4,123.3,437,75L437,75z"/>
	<path class="st0" d="M403,109.6c2.8-3,2.7-7.8-0.4-10.6c-39.9-37.3-92-57.8-146.6-57.8c-57.4,0-111.3,22.3-151.9,62.9
		S41.1,198.6,41.1,256s22.3,111.3,62.9,151.9s94.5,62.9,151.9,62.9s111.3-22.3,151.9-62.9s62.9-94.5,62.9-151.9
		c0-49.3-16.3-95.7-47-134.2c-2.6-3.2-7.3-3.8-10.6-1.2c-3.2,2.6-3.8,7.3-1.2,10.6c28.6,35.7,43.7,78.9,43.7,124.8
		c0,110.2-89.6,199.8-199.8,199.8S56.2,366.2,56.2,256S145.8,56.2,256,56.2c50.8,0,99.2,19.1,136.4,53.7
		C395.4,112.8,400.1,112.6,403,109.6L403,109.6z"/>
	<path class="st0" d="M263.5,98.6V75.4c0-4.2-3.4-7.5-7.5-7.5s-7.5,3.4-7.5,7.5v23.3c0,4.2,3.4,7.5,7.5,7.5S263.5,102.8,263.5,98.6z
		"/>
	<path class="st0" d="M248.5,413.4v23.3c0,4.1,3.4,7.5,7.5,7.5s7.5-3.4,7.5-7.5v-23.3c0-4.1-3.4-7.5-7.5-7.5
		S248.5,409.2,248.5,413.4z"/>
	<path class="st0" d="M436.6,263.5c4.2,0,7.5-3.4,7.5-7.5s-3.4-7.5-7.5-7.5h-23.3c-4.2,0-7.5,3.4-7.5,7.5s3.4,7.5,7.5,7.5H436.6z"/>
	<path class="st0" d="M75.4,248.5c-4.2,0-7.5,3.4-7.5,7.5s3.4,7.5,7.5,7.5h23.3c4.2,0,7.5-3.4,7.5-7.5s-3.4-7.5-7.5-7.5H75.4z"/>
	<path class="st0" d="M357.6,351.1c3.2,2.7,7.9,2.3,10.6-0.9c2.7-3.2,2.3-7.9-0.9-10.6L285.6,271c2-3.9,3.2-8.3,3.5-12.9l47.7-48.4
		c8.7-8.5,8.6-23.6-0.2-31.9c-8.4-8.7-23.6-8.6-31.9,0.2l-44.4,45c-3.6-0.5-7.5-0.4-11,0.4l-89.6-79.8c-8.9-8.3-24-7.4-31.8,1.8
		c-8.3,9.3-7.4,23.6,1.8,31.8l43.4,38.6c3.1,2.8,7.8,2.5,10.6-0.6c2.8-3.1,2.5-7.8-0.6-10.6l-43.4-38.6c-3.1-2.8-3.4-7.5-0.6-10.6
		c2.6-3.1,7.7-3.4,10.6-0.6l85,75.7c-3.9,3.2-7,7.4-9.1,12.1l-20.1-17.9c-3.1-2.8-7.8-2.5-10.6,0.6c-2.8,3.1-2.5,7.8,0.6,10.6
		l27.6,24.6c2.2,16.2,16.1,28.7,32.9,28.7c7.5,0,14.4-2.5,19.9-6.7L357.6,351.1z M315.4,188.7c2.8-2.9,7.8-3,10.6-0.1
		c2.9,2.8,3,7.8,0.1,10.6l-40.7,41.3c-2.4-4.5-5.8-8.4-9.9-11.4L315.4,188.7z M256,274.2c-10,0-18.2-8.2-18.2-18.2
		s8.2-18.2,18.2-18.2c10,0,18.2,8.2,18.2,18.2S266,274.2,256,274.2z"/>
</g>
</svg>
